<svg width="441" height="409" viewBox="0 0 441 409" fill="none" xmlns="http://www.w3.org/2000/svg">
<path fill-rule="evenodd" clip-rule="evenodd" d="M188.776 36.9949C183.013 46.3284 179.701 58.1877 176.622 65.1767C174.183 70.7113 173.234 75.6721 171.603 82.6337C170.22 88.541 150.886 95.5 142.5 95.5C136.194 95.5 150.069 88.8053 150.886 84.4957C152.278 77.1619 127.265 78.5335 124.698 78.4889C81.8091 77.7436 33.81 106.785 18.4252 146.717C-4.83811 207.096 -4.16838 254.255 18.6442 313.184C50 394.181 151.038 405.039 148 395.5C146.192 389.821 142.068 385.05 143.009 385.05C144.5 385.05 180 405.5 202.397 407.121C216.516 408.144 273 403 291.5 387.5C294.33 385.129 289.822 392.829 294 394.5C341.5 413.5 403.244 351.158 417 324.5C430.644 298.06 440.368 254.165 439 224.917C437.334 189.299 409.678 103.861 367 91.8031C349.819 86.9488 309.177 74 291.094 81.0699C285.067 83.4263 300.63 96.6071 298 98.5C295.497 100.301 284.715 94.4801 279.508 91.8031C261.858 82.73 254.401 78.1729 234.382 80.2515C231.52 80.5487 227.286 81.4996 226.455 77.7906C224.715 70.0239 227.054 64.8385 228.307 60.0713C229.58 55.228 234.009 50.4905 237.355 45.121C247.032 29.5915 257.522 37.6391 265.5 28.5C269.725 23.6603 263.148 14.9211 260.022 11.5241C257.138 8.39001 253.929 5.34058 249.558 3.27982C240.24 -1.11275 229.011 1.61047 220.835 6.84682L220.698 6.93488C205.078 16.9392 198.599 21.0887 188.776 36.9949ZM257.075 299.615C266.325 299.615 272.1 321.552 276.031 320.5C283.5 318.5 285.222 294.889 294 290.5C316.381 279.31 347.824 269.5 362.985 260.902C366.5 258.909 350.847 301.596 337.727 317.591C322.907 335.657 274.941 372.927 252 366.236C248.447 365.2 243.757 344.138 238 343.97C234.134 343.857 208.5 343.488 189.225 343.488C183.374 343.488 188.607 366.022 180 365C163.59 363.052 144.932 355.028 131.5 345.5C114.471 333.421 89.4831 307.773 79.5 289.5C75.7877 282.705 68.9965 271.142 71.2382 263.693C72.5 259.5 137.5 288 143.325 292.121C146.987 294.712 151.149 308.288 157 318.5C158.255 320.691 172.72 299.626 180 299.615C190.287 299.6 244 299.615 257.075 299.615ZM189.5 260C192.5 243.5 202 222.5 217.441 208.205C219.4 206.392 251.293 251.491 244 260C238 267 188.727 264.252 189.5 260ZM260.5 194.233C260.5 166 279.508 145.571 307.402 145.571C332.689 145.571 354.5 171.5 354.5 194.233C354.5 217.961 336.5 247.757 307.402 248.5C280.17 249.195 260.5 219.5 260.5 194.233ZM79.5 194.233C79.5 166 98.5078 145.571 126.402 145.571C151.689 145.571 173.5 171.5 173.5 194.233C173.5 217.961 155.5 247.757 126.402 248.5C99.1705 249.195 79.5 219.5 79.5 194.233Z" fill="#E36810"/>
<path d="M220.835 6.84682C229.011 1.61047 240.24 -1.11275 249.558 3.27982C253.929 5.34058 257.138 8.39001 260.022 11.5241C263.148 14.9211 269.725 23.6603 265.5 28.5C257.522 37.6391 247.032 29.5915 237.355 45.121C234.009 50.4905 229.58 55.228 228.307 60.0713C227.054 64.8385 224.715 70.0239 226.455 77.7906C227.286 81.4996 231.52 80.5487 234.382 80.2515C254.401 78.1729 261.858 82.73 279.508 91.8031C284.715 94.4801 295.497 100.301 298 98.5C300.63 96.6071 285.067 83.4263 291.094 81.0699C309.177 74 349.819 86.9488 367 91.8031C409.678 103.861 437.334 189.299 439 224.917C440.368 254.165 430.644 298.06 417 324.5C403.244 351.158 341.5 413.5 294 394.5C289.822 392.829 294.33 385.129 291.5 387.5C273 403 216.516 408.144 202.397 407.121C180 405.5 144.5 385.05 143.009 385.05C142.068 385.05 146.192 389.821 148 395.5C151.038 405.039 50 394.181 18.6442 313.184C-4.16838 254.255 -4.83811 207.096 18.4252 146.717C33.81 106.785 81.8091 77.7436 124.698 78.4889C127.265 78.5335 152.278 77.1619 150.886 84.4957C150.069 88.8053 136.194 95.5 142.5 95.5C150.886 95.5 170.22 88.541 171.603 82.6337C173.234 75.6721 174.183 70.7113 176.622 65.1767C179.701 58.1877 183.013 46.3284 188.776 36.9949C198.599 21.0887 205.078 16.9392 220.698 6.93488M220.835 6.84682L220.698 6.93488M220.835 6.84682C220.789 6.87622 220.743 6.90558 220.698 6.93488M71.2382 263.693C68.9965 271.142 75.7877 282.705 79.5 289.5C89.4831 307.773 114.471 333.421 131.5 345.5C144.932 355.028 163.59 363.052 180 365C188.607 366.022 183.374 343.488 189.225 343.488C208.5 343.488 234.134 343.857 238 343.97C243.757 344.138 248.447 365.2 252 366.236C274.941 372.927 322.907 335.657 337.727 317.591C350.847 301.596 366.5 258.909 362.985 260.902C347.824 269.5 316.381 279.31 294 290.5C285.222 294.889 283.5 318.5 276.031 320.5C272.1 321.552 266.325 299.615 257.075 299.615C244 299.615 190.287 299.6 180 299.615C172.72 299.626 158.255 320.691 157 318.5C151.149 308.288 146.987 294.712 143.325 292.121C137.5 288 72.5 259.5 71.2382 263.693ZM217.441 208.205C202 222.5 192.5 243.5 189.5 260C188.727 264.252 238 267 244 260C251.293 251.491 219.4 206.392 217.441 208.205ZM307.402 145.571C279.508 145.571 260.5 166 260.5 194.233C260.5 219.5 280.17 249.195 307.402 248.5C336.5 247.757 354.5 217.961 354.5 194.233C354.5 171.5 332.689 145.571 307.402 145.571ZM126.402 145.571C98.5078 145.571 79.5 166 79.5 194.233C79.5 219.5 99.1705 249.195 126.402 248.5C155.5 247.757 173.5 217.961 173.5 194.233C173.5 171.5 151.689 145.571 126.402 145.571Z" stroke="#E36810" stroke-width="2" stroke-linecap="round"/>
</svg>
