<svg width="64" height="64" viewBox="0 0 64 64" fill="none" xmlns="http://www.w3.org/2000/svg">
<path d="M32 3C16 3 3 16 3 32C3 48 16 61 32 61C48 61 61 48 61 32C61 16 48 3 32 3ZM32 6C46.35 6 58 17.65 58 32C58 46.35 46.35 58 32 58C17.65 58 6 46.35 6 32C6 17.65 17.65 6 32 6ZM32 15C30.8065 15 29.6619 15.4741 28.818 16.318C27.9741 17.1619 27.5 18.3065 27.5 19.5C27.5 20.6935 27.9741 21.8381 28.818 22.682C29.6619 23.5259 30.8065 24 32 24C33.1935 24 34.3381 23.5259 35.182 22.682C36.0259 21.8381 36.5 20.6935 36.5 19.5C36.5 18.3065 36.0259 17.1619 35.182 16.318C34.3381 15.4741 33.1935 15 32 15ZM32 29.5C29.5 29.5 27.5 31.5 27.5 34V46C27.5 48.5 29.5 50.5 32 50.5C34.5 50.5 36.5 48.5 36.5 46V34C36.5 31.5 34.5 29.5 32 29.5Z" fill="#EBDBBE"/>
</svg>
